<?xml version="1.0" encoding="UTF-8"?>
<svg xmlns="http://www.w3.org/2000/svg" xmlns:xlink="http://www.w3.org/1999/xlink" width="37.5pt" height="37.499999pt" viewBox="0 0 37.5 37.499999" version="1.2">
<defs>
<clipPath id="clip1">
  <path d="M 0 0 L 37.007812 0 L 37.007812 37.007812 L 0 37.007812 Z M 0 0 "/>
</clipPath>
</defs>
<g id="surface1">
<g clip-path="url(#clip1)" clip-rule="nonzero">
<path style=" stroke:none;fill-rule:nonzero;fill:rgb(0%,0%,0%);fill-opacity:1;" d="M 33.75 0 L 3.75 0 C 3.253906 0 2.773438 0.09375 2.316406 0.285156 C 1.855469 0.476562 1.449219 0.746094 1.097656 1.097656 C 0.746094 1.449219 0.476562 1.855469 0.285156 2.316406 C 0.09375 2.773438 0 3.253906 0 3.75 L 0 33.75 C 0 34.246094 0.09375 34.726562 0.285156 35.183594 C 0.476562 35.644531 0.746094 36.050781 1.097656 36.402344 C 1.449219 36.753906 1.855469 37.023438 2.316406 37.214844 C 2.773438 37.40625 3.253906 37.5 3.75 37.5 L 33.75 37.5 C 34.246094 37.5 34.726562 37.40625 35.183594 37.214844 C 35.644531 37.023438 36.050781 36.753906 36.402344 36.402344 C 36.753906 36.050781 37.023438 35.644531 37.214844 35.183594 C 37.40625 34.726562 37.5 34.246094 37.5 33.75 L 37.5 3.75 C 37.5 3.253906 37.40625 2.773438 37.214844 2.316406 C 37.023438 1.855469 36.753906 1.449219 36.402344 1.097656 C 36.050781 0.746094 35.644531 0.476562 35.183594 0.285156 C 34.726562 0.09375 34.246094 0 33.75 0 Z M 3.75 2.5 L 33.75 2.5 C 33.914062 2.5 34.074219 2.53125 34.226562 2.59375 C 34.382812 2.660156 34.515625 2.75 34.632812 2.867188 C 34.75 2.984375 34.839844 3.117188 34.90625 3.273438 C 34.96875 3.425781 35 3.585938 35 3.75 L 35 18.75 L 27 12.75 C 26.75 12.5625 26.472656 12.480469 26.160156 12.503906 C 25.851562 12.523438 25.585938 12.644531 25.367188 12.867188 L 15.945312 22.289062 L 10.820312 17.808594 C 10.699219 17.703125 10.566406 17.625 10.414062 17.570312 C 10.265625 17.519531 10.113281 17.496094 9.953125 17.5 C 9.796875 17.503906 9.644531 17.539062 9.496094 17.601562 C 9.351562 17.664062 9.222656 17.753906 9.109375 17.863281 L 2.5 24.484375 L 2.5 3.75 C 2.5 3.585938 2.53125 3.425781 2.59375 3.273438 C 2.660156 3.117188 2.75 2.984375 2.867188 2.867188 C 2.984375 2.75 3.117188 2.660156 3.273438 2.59375 C 3.425781 2.53125 3.585938 2.5 3.75 2.5 Z M 2.5 33.75 L 2.5 28.015625 L 10.054688 20.460938 L 26.671875 35 L 3.75 35 C 3.585938 35 3.425781 34.96875 3.273438 34.90625 C 3.117188 34.839844 2.984375 34.75 2.867188 34.632812 C 2.75 34.515625 2.660156 34.382812 2.59375 34.226562 C 2.53125 34.074219 2.5 33.914062 2.5 33.75 Z M 33.75 35 L 30.46875 35 L 17.828125 23.9375 L 26.367188 15.398438 L 35 21.875 L 35 33.75 C 35 33.914062 34.96875 34.074219 34.90625 34.226562 C 34.839844 34.382812 34.75 34.515625 34.632812 34.632812 C 34.515625 34.75 34.382812 34.839844 34.226562 34.90625 C 34.074219 34.96875 33.914062 35 33.75 35 Z M 33.75 35 "/>
</g>
<path style=" stroke:none;fill-rule:nonzero;fill:rgb(0%,0%,0%);fill-opacity:1;" d="M 12.5 15 C 12.828125 15 13.152344 14.96875 13.476562 14.902344 C 13.796875 14.839844 14.109375 14.746094 14.414062 14.621094 C 14.714844 14.492188 15.003906 14.339844 15.277344 14.15625 C 15.550781 13.976562 15.804688 13.769531 16.035156 13.535156 C 16.269531 13.304688 16.476562 13.050781 16.65625 12.777344 C 16.839844 12.503906 16.992188 12.214844 17.121094 11.914062 C 17.246094 11.609375 17.339844 11.296875 17.402344 10.976562 C 17.46875 10.652344 17.5 10.328125 17.5 10 C 17.5 9.671875 17.46875 9.347656 17.402344 9.023438 C 17.339844 8.703125 17.246094 8.390625 17.121094 8.085938 C 16.992188 7.785156 16.839844 7.496094 16.65625 7.222656 C 16.476562 6.949219 16.269531 6.695312 16.035156 6.464844 C 15.804688 6.230469 15.550781 6.023438 15.277344 5.84375 C 15.003906 5.660156 14.714844 5.507812 14.414062 5.378906 C 14.109375 5.253906 13.796875 5.160156 13.476562 5.097656 C 13.152344 5.03125 12.828125 5 12.5 5 C 12.171875 5 11.847656 5.03125 11.523438 5.097656 C 11.203125 5.160156 10.890625 5.253906 10.585938 5.378906 C 10.285156 5.507812 9.996094 5.660156 9.722656 5.84375 C 9.449219 6.023438 9.195312 6.230469 8.964844 6.464844 C 8.730469 6.695312 8.523438 6.949219 8.34375 7.222656 C 8.160156 7.496094 8.007812 7.785156 7.878906 8.085938 C 7.753906 8.390625 7.660156 8.703125 7.597656 9.023438 C 7.53125 9.347656 7.5 9.671875 7.5 10 C 7.5 10.328125 7.53125 10.652344 7.597656 10.976562 C 7.660156 11.296875 7.753906 11.609375 7.878906 11.914062 C 8.007812 12.214844 8.160156 12.503906 8.34375 12.777344 C 8.523438 13.050781 8.730469 13.304688 8.964844 13.535156 C 9.195312 13.769531 9.449219 13.976562 9.722656 14.15625 C 9.996094 14.339844 10.285156 14.492188 10.585938 14.621094 C 10.890625 14.746094 11.203125 14.839844 11.523438 14.902344 C 11.847656 14.96875 12.171875 15 12.5 15 Z M 12.5 7.5 C 12.832031 7.5 13.152344 7.5625 13.457031 7.691406 C 13.761719 7.816406 14.035156 7.996094 14.269531 8.230469 C 14.503906 8.464844 14.683594 8.738281 14.808594 9.042969 C 14.9375 9.347656 15 9.667969 15 10 C 15 10.332031 14.9375 10.652344 14.808594 10.957031 C 14.683594 11.261719 14.503906 11.535156 14.269531 11.769531 C 14.035156 12.003906 13.761719 12.183594 13.457031 12.308594 C 13.152344 12.4375 12.832031 12.5 12.5 12.5 C 12.167969 12.5 11.847656 12.4375 11.542969 12.308594 C 11.238281 12.183594 10.964844 12.003906 10.730469 11.769531 C 10.496094 11.535156 10.316406 11.261719 10.191406 10.957031 C 10.0625 10.652344 10 10.332031 10 10 C 10 9.667969 10.0625 9.347656 10.191406 9.042969 C 10.316406 8.738281 10.496094 8.464844 10.730469 8.230469 C 10.964844 7.996094 11.238281 7.816406 11.542969 7.691406 C 11.847656 7.5625 12.167969 7.5 12.5 7.5 Z M 12.5 7.5 "/>
</g>
</svg>
